<svg width="27" height="27" viewBox="0 0 27 27" fill="none" xmlns="http://www.w3.org/2000/svg">
<path d="M13.5 27C6.05571 27 0 20.9443 0 13.5C0 6.05571 6.05571 0 13.5 0C20.9443 0 27 6.05571 27 13.5C27 20.9443 20.9443 27 13.5 27ZM13.5 1.92857C7.11643 1.92857 1.92857 7.11643 1.92857 13.5C1.92857 19.8836 7.11643 25.0714 13.5 25.0714C19.8836 25.0714 25.0714 19.8836 25.0714 13.5C25.0714 7.11643 19.8836 1.92857 13.5 1.92857Z" fill="#A9A9A9"/>
<path d="M13.5 20.25C12.96 20.25 12.5357 19.8257 12.5357 19.2857V7.71429C12.5357 7.17429 12.96 6.75 13.5 6.75C14.04 6.75 14.4643 7.17429 14.4643 7.71429V19.2857C14.4643 19.8257 14.04 20.25 13.5 20.25Z" fill="#A9A9A9"/>
<path d="M19.2857 14.4642H7.71429C7.17429 14.4642 6.75 14.0399 6.75 13.4999C6.75 12.9599 7.17429 12.5356 7.71429 12.5356H19.2857C19.8257 12.5356 20.25 12.9599 20.25 13.4999C20.25 14.0399 19.8257 14.4642 19.2857 14.4642Z" fill="#A9A9A9"/>
</svg>
