<svg width="65" height="35" viewBox="0 0 65 35" fill="none" xmlns="http://www.w3.org/2000/svg">
<mask id="mask0_6_44" style="mask-type:luminance" maskUnits="userSpaceOnUse" x="0" y="0" width="65" height="35">
<path d="M0.167603 0.492096H64.0876V34.4921H0.167603V0.492096Z" fill="white"/>
<path d="M6.1676 23H18.1676M12.1676 29V17" stroke="white" stroke-width="1.5" stroke-miterlimit="10" stroke-linecap="round" stroke-linejoin="round"/>
</mask>
<g mask="url(#mask0_6_44)">
<path d="M47.0876 0.492096H17.1676C7.81761 0.492096 0.167603 8.1421 0.167603 17.4921C0.167603 26.8421 7.81761 34.4921 17.1676 34.4921H47.0876C56.4376 34.4921 64.0876 26.8421 64.0876 17.4921C64.0876 8.1421 56.4376 0.492096 47.0876 0.492096Z" fill="white"/>
<path d="M47.0876 1.8691C49.1871 1.8691 51.2271 2.2856 53.1481 3.1016C55.0096 3.8921 56.6756 5.0226 58.1206 6.4591C59.5571 7.8956 60.6876 9.5701 61.4781 11.4316C62.2941 13.3526 62.7106 15.3926 62.7106 17.4921C62.7106 19.5916 62.2941 21.6316 61.4781 23.5526C60.6876 25.4141 59.5571 27.0801 58.1206 28.5251C56.6841 29.9616 55.0096 31.0921 53.1481 31.8826C51.2271 32.6986 49.1871 33.1151 47.0876 33.1151H17.1676C15.0681 33.1151 13.0281 32.6986 11.1071 31.8826C9.24561 31.0921 7.57961 29.9616 6.1346 28.5251C4.6981 27.0886 3.5676 25.4141 2.7771 23.5526C1.9611 21.6316 1.5446 19.5916 1.5446 17.4921C1.5446 15.3926 1.9611 13.3526 2.7771 11.4316C3.5676 9.5701 4.6981 7.9041 6.1346 6.4591C7.57111 5.0226 9.24561 3.8921 11.1071 3.1016C13.0281 2.2856 15.0681 1.8691 17.1676 1.8691H47.0876ZM47.0876 0.492096H17.1676C7.81761 0.492096 0.167603 8.1421 0.167603 17.4921C0.167603 26.8421 7.81761 34.4921 17.1676 34.4921H47.0876C56.4376 34.4921 64.0876 26.8421 64.0876 17.4921C64.0876 8.1421 56.4376 0.492096 47.0876 0.492096Z" fill="#3C4043"/>
<path d="M30.6486 18.6906V23.8416H29.0166V11.1426H33.3431C34.4396 11.1426 35.3746 11.5081 36.1396 12.2391C36.9216 12.9701 37.3126 13.8626 37.3126 14.9166C37.3126 15.9961 36.9216 16.8886 36.1396 17.6111C35.3831 18.3336 34.4481 18.6906 33.3431 18.6906H30.6486ZM30.6486 12.7066V17.1351H33.3771C34.0231 17.1351 34.5671 16.9141 34.9921 16.4806C35.4256 16.0471 35.6466 15.5201 35.6466 14.9251C35.6466 14.3386 35.4256 13.8201 34.9921 13.3866C34.5671 12.9361 34.0316 12.7151 33.3771 12.7151H30.6486V12.7066ZM41.5796 14.8656C42.7866 14.8656 43.7386 15.1886 44.4356 15.8346C45.1326 16.4806 45.4811 17.3646 45.4811 18.4866V23.8416H43.9256V22.6346H43.8576C43.1861 23.6291 42.2851 24.1221 41.1631 24.1221C40.2026 24.1221 39.4036 23.8416 38.7576 23.2721C38.1116 22.7026 37.7886 21.9971 37.7886 21.1471C37.7886 20.2461 38.1286 19.5321 38.8086 19.0051C39.4886 18.4696 40.3981 18.2061 41.5286 18.2061C42.4976 18.2061 43.2966 18.3846 43.9171 18.7416V18.3676C43.9171 17.7981 43.6961 17.3221 43.2456 16.9226C42.7951 16.5231 42.2681 16.3276 41.6646 16.3276C40.7551 16.3276 40.0326 16.7101 39.5056 17.4836L38.0691 16.5826C38.8596 15.4351 40.0326 14.8656 41.5796 14.8656ZM39.4716 21.1726C39.4716 21.5976 39.6501 21.9546 40.0156 22.2351C40.3726 22.5156 40.7976 22.6601 41.2821 22.6601C41.9706 22.6601 42.5826 22.4051 43.1181 21.8951C43.6536 21.3851 43.9256 20.7901 43.9256 20.1016C43.4156 19.7021 42.7101 19.4981 41.8006 19.4981C41.1376 19.4981 40.5851 19.6596 40.1431 19.9741C39.6926 20.3056 39.4716 20.7051 39.4716 21.1726ZM54.3551 15.1461L48.9151 27.6581H47.2321L49.2551 23.2806L45.6681 15.1461H47.4446L50.0286 21.3851H50.0626L52.5786 15.1461H54.3551Z" fill="#3C4043"/>
<path d="M24.1572 17.6621C24.1572 17.13 24.1096 16.6209 24.0212 16.1313H17.1804V18.9363L21.1201 18.9371C20.9603 19.8704 20.4461 20.666 19.6581 21.1964V23.0163H22.0033C23.3726 21.7489 24.1572 19.8755 24.1572 17.6621Z" fill="#4285F4"/>
<path d="M19.659 21.1964C19.0062 21.6367 18.1655 21.8942 17.1821 21.8942C15.2823 21.8942 13.6707 20.6141 13.0936 18.8886H10.6745V20.7654C11.873 23.1437 14.3363 24.7757 17.1821 24.7757C19.149 24.7757 20.8014 24.1289 22.0041 23.0154L19.659 21.1964Z" fill="#34A853"/>
<path d="M12.8658 17.4963C12.8658 17.0118 12.9465 16.5435 13.0936 16.1032V14.2264H10.6745C10.1789 15.2098 9.90011 16.3199 9.90011 17.4963C9.90011 18.6727 10.1798 19.7828 10.6745 20.7663L13.0936 18.8895C12.943 18.4404 12.8661 17.97 12.8658 17.4963Z" fill="#FABB05"/>
<path d="M17.1821 13.0976C18.2556 13.0976 19.217 13.4673 19.976 14.1898L22.0543 12.1133C20.792 10.9377 19.1464 10.2161 17.1821 10.2161C14.3371 10.2161 11.873 11.8481 10.6745 14.2264L13.0936 16.1032C13.6707 14.3777 15.2823 13.0976 17.1821 13.0976Z" fill="#E94235"/>
</g>
</svg>
