<svg width="64" height="34" viewBox="0 0 64 34" fill="none" xmlns="http://www.w3.org/2000/svg">
<path d="M46.92 0H17C7.65 0 0 7.65 0 17C0 26.35 7.65 34 17 34H46.92C56.27 34 63.92 26.35 63.92 17C63.92 7.65 56.27 0 46.92 0Z" fill="white"/>
<path d="M46.92 1.377C49.0195 1.377 51.0595 1.7935 52.9805 2.6095C54.842 3.4 56.508 4.5305 57.953 5.967C59.3895 7.4035 60.52 9.078 61.3105 10.9395C62.1265 12.8605 62.543 14.9005 62.543 17C62.543 19.0995 62.1265 21.1395 61.3105 23.0605C60.52 24.922 59.3895 26.588 57.953 28.033C56.5165 29.4695 54.842 30.6 52.9805 31.3905C51.0595 32.2065 49.0195 32.623 46.92 32.623H17C14.9005 32.623 12.8605 32.2065 10.9395 31.3905C9.078 30.6 7.412 29.4695 5.967 28.033C4.5305 26.5965 3.4 24.922 2.6095 23.0605C1.7935 21.1395 1.377 19.0995 1.377 17C1.377 14.9005 1.7935 12.8605 2.6095 10.9395C3.4 9.078 4.5305 7.412 5.967 5.967C7.4035 4.5305 9.078 3.4 10.9395 2.6095C12.8605 1.7935 14.9005 1.377 17 1.377H46.92ZM46.92 0H17C7.65 0 0 7.65 0 17C0 26.35 7.65 34 17 34H46.92C56.27 34 63.92 26.35 63.92 17C63.92 7.65 56.27 0 46.92 0Z" fill="#3C4043"/>
<path d="M57.1647 14.2821C56.7425 13.0797 55.5966 12.2164 54.2547 12.2164H54.2245C53.35 12.2164 52.5622 12.5821 52.0005 13.1664C51.4389 12.5821 50.651 12.2164 49.7765 12.2164H49.7501C48.9812 12.2164 48.2763 12.4992 47.7372 12.9628V12.7291C47.7184 12.4916 47.5262 12.3069 47.2849 12.3069H45.2192C44.9667 12.3069 44.7631 12.5105 44.7631 12.763V23.9734C44.7631 24.226 44.9667 24.4295 45.2192 24.4295H47.2849C47.5149 24.4295 47.7071 24.2561 47.7335 24.0375V15.9897C47.7335 15.9595 47.7335 15.9369 47.7372 15.9105C47.7712 15.5524 48.035 15.2546 48.4497 15.2207H48.8304C49.0038 15.2358 49.1508 15.2961 49.2639 15.3903C49.4448 15.5336 49.5428 15.7522 49.5428 15.9935L49.5504 23.9998C49.5504 24.2524 49.7539 24.4597 50.0065 24.4597H52.0721C52.3172 24.4597 52.5132 24.2674 52.5245 24.0262V15.9859C52.5245 15.7221 52.6451 15.4808 52.86 15.3413C52.9655 15.2735 53.0937 15.2283 53.2407 15.2132H53.6214C54.07 15.2509 54.3376 15.5901 54.3376 15.9859L54.3451 23.9847C54.3451 24.2373 54.5487 24.4408 54.8012 24.4408H56.8669C57.1081 24.4408 57.3079 24.2524 57.323 24.0149V15.2433C57.3117 14.7495 57.2476 14.5196 57.1647 14.2821ZM43.1875 12.3371H42.0077V10.4222C42.0077 10.4184 42.0077 10.4184 42.0077 10.4146C42.0077 10.1885 41.823 10 41.5892 10C41.5629 10 41.5365 10.0038 41.5101 10.0075C40.2021 10.3656 40.4622 12.1788 38.0723 12.3333H37.8424C37.8085 12.3333 37.7745 12.3371 37.7406 12.3446C37.5408 12.3936 37.3863 12.5745 37.3863 12.7932V14.8588C37.3863 15.1114 37.5898 15.315 37.8424 15.315H39.0863L39.0826 24.0677C39.0826 24.3164 39.2861 24.52 39.5349 24.52H41.5779C41.8267 24.52 42.0303 24.3164 42.0303 24.0677V15.315H43.1875C43.4363 15.315 43.6436 15.1076 43.6436 14.8588V12.7932C43.6436 12.5406 43.4401 12.3371 43.1875 12.3371Z" fill="#00BAF2"/>
<path d="M35.7616 12.3371H33.696C33.4472 12.3371 33.2399 12.5406 33.2399 12.7932V17.064C33.2361 17.3278 33.0212 17.5389 32.7574 17.5389H31.8942C31.6265 17.5389 31.4079 17.3241 31.4079 17.0564L31.4004 12.7932C31.4004 12.5406 31.1968 12.3371 30.9443 12.3371H28.8786C28.626 12.3371 28.4225 12.5406 28.4225 12.7932V17.4711C28.4225 19.2465 29.689 20.5168 31.4682 20.5168C31.4682 20.5168 32.8026 20.5168 32.8441 20.5243C33.0853 20.5507 33.27 20.7543 33.27 21.0031C33.27 21.2481 33.0891 21.4516 32.8478 21.4818C32.8365 21.4818 32.8252 21.4856 32.8139 21.4893L29.7946 21.5006C29.542 21.5006 29.3385 21.7042 29.3385 21.9567V24.0186C29.3385 24.2712 29.542 24.4747 29.7946 24.4747H33.1683C34.9474 24.4747 36.214 23.2082 36.214 21.4328V12.7932C36.2178 12.5406 36.0142 12.3371 35.7616 12.3371ZM24.016 12.3484H21.1512C20.8986 12.3484 20.6913 12.5406 20.6913 12.7743V13.5772C20.6913 13.581 20.6913 13.5885 20.6913 13.5923C20.6913 13.5998 20.6913 13.6036 20.6913 13.6111V14.7118C20.6913 14.9606 20.9099 15.1679 21.1776 15.1679H23.9067C24.1215 15.2018 24.2912 15.3602 24.3175 15.6052V15.8728C24.2949 16.1065 24.1253 16.2761 23.918 16.295H22.5685C20.7705 16.295 19.4926 17.4899 19.4926 19.1636V21.5647C19.4926 23.2308 20.5933 24.4144 22.3763 24.4144H26.1193C26.7903 24.4144 27.3369 23.9056 27.3369 23.2798V15.4469C27.3369 13.5471 26.3568 12.3484 24.016 12.3484ZM24.3439 20.9654V21.2895C24.3439 21.3159 24.3402 21.3423 24.3364 21.3649C24.3326 21.3875 24.3251 21.4102 24.3175 21.4328C24.2535 21.6137 24.0725 21.7456 23.8577 21.7456H22.9982C22.7306 21.7456 22.512 21.5421 22.512 21.2895V20.9013C22.512 20.8975 22.512 20.89 22.512 20.8862V19.8496V19.5254V19.5217C22.512 19.2729 22.7306 19.0693 22.9982 19.0693H23.8577C24.1253 19.0693 24.3439 19.2729 24.3439 19.5254V20.9654ZM15.9606 12.3333H11.4486C11.1998 12.3333 11 12.5368 11 12.7818V14.8061C11 14.8098 11 14.8136 11 14.8174C11 14.8287 11 14.8362 11 14.8437V23.9998C11 24.2486 11.1847 24.4521 11.4184 24.4559H13.5218C13.7743 24.4559 13.9779 24.2523 13.9779 23.9998L13.9854 20.8636H15.9606C17.6116 20.8636 18.7651 19.7177 18.7651 18.0553V15.1453C18.7651 13.4867 17.6116 12.3333 15.9606 12.3333ZM15.7797 16.1178V17.3919C15.7797 17.6595 15.5648 17.8782 15.2972 17.8782H13.9892V15.3262H15.2972C15.5648 15.3262 15.7797 15.5411 15.7797 15.8087V16.1178Z" fill="#20336B"/>
</svg>
