<svg width="64" height="34" viewBox="0 0 64 34" fill="none" xmlns="http://www.w3.org/2000/svg">
<path d="M46.92 0H17C7.65 0 0 7.65 0 17C0 26.35 7.65 34 17 34H46.92C56.27 34 63.92 26.35 63.92 17C63.92 7.65 56.27 0 46.92 0Z" fill="#5F259F"/>
<path d="M46.92 1.377C49.0195 1.377 51.0595 1.7935 52.9805 2.6095C54.842 3.4 56.508 4.5305 57.953 5.967C59.3895 7.4035 60.52 9.078 61.3105 10.9395C62.1265 12.8605 62.543 14.9005 62.543 17C62.543 19.0995 62.1265 21.1395 61.3105 23.0605C60.52 24.922 59.3895 26.588 57.953 28.033C56.5165 29.4695 54.842 30.6 52.9805 31.3905C51.0595 32.2065 49.0195 32.623 46.92 32.623H17C14.9005 32.623 12.8605 32.2065 10.9395 31.3905C9.078 30.6 7.412 29.4695 5.967 28.033C4.5305 26.5965 3.4 24.922 2.6095 23.0605C1.7935 21.1395 1.377 19.0995 1.377 17C1.377 14.9005 1.7935 12.8605 2.6095 10.9395C3.4 9.078 4.5305 7.412 5.967 5.967C7.4035 4.5305 9.078 3.4 10.9395 2.6095C12.8605 1.7935 14.9005 1.377 17 1.377H46.92ZM46.92 0H17C7.65 0 0 7.65 0 17C0 26.35 7.65 34 17 34H46.92C56.27 34 63.92 26.35 63.92 17C63.92 7.65 56.27 0 46.92 0Z" fill="#3C4043"/>
<g clip-path="url(#clip0_6_43)">
<path d="M47.5688 20.6765C49.5991 12.0781 44.2747 3.46173 35.6762 1.43136C27.0778 -0.599007 18.4614 4.72547 16.431 13.3239C14.4007 21.9224 19.7251 30.5387 28.3236 32.5691C36.922 34.5995 45.5384 29.275 47.5688 20.6765Z" fill="#5F259F"/>
<path d="M39.2603 12.8252C39.2603 12.1997 38.7243 11.6631 38.0988 11.6631H35.9536L31.0387 6.03287C30.5916 5.49681 29.8767 5.31793 29.1618 5.4968L27.4637 6.03287C27.1954 6.12224 27.106 6.47999 27.2848 6.6583L32.6473 11.7526H24.5148C24.2464 11.7526 24.0676 11.9314 24.0676 12.1997V13.0929C24.0676 13.7189 24.6042 14.2549 25.2296 14.2549H26.4806V18.5449C26.4806 21.7621 28.1787 23.6386 31.0388 23.6386C31.932 23.6386 32.6474 23.5491 33.5406 23.1919V26.0515C33.5406 26.8559 34.1666 27.4819 34.9709 27.4819H36.2219C36.4902 27.4819 36.7579 27.2136 36.7579 26.9452V14.1655H38.8138C39.082 14.1655 39.2603 13.9867 39.2603 13.7189V12.8252H39.2603ZM33.5406 20.5106C33.0046 20.7789 32.2897 20.8683 31.7537 20.8683C30.3233 20.8683 29.6084 20.1534 29.6084 18.5448V14.2549H33.5406V20.5106Z" fill="white"/>
</g>
<defs>
<clipPath id="clip0_6_43">
<rect width="32" height="32" fill="white" transform="translate(16 1)"/>
</clipPath>
</defs>
</svg>
